# xmcd CD database file
#
# Track frame offsets:
#	150
#	14192
#	26731
#	47577
#	61885
#	73412
#	84632
#	96553
#	109276
#	120210
#
# Disc length: 1752 seconds
#
# Revision: 0
# Processed by: cddbd v1.5.2PL0 Copyright (c) Steve Scherf et al.
# Submitted via: CDex 1.70beta2
#
DISCID=8e06d60a
DTITLE=Bill Doggett - Greatest Hits Honky Tonk
DYEAR=2004
DGENRE=Blues
TTITLE0=Honky Tonk (part 1)
TTITLE1=Big Dog Blues (Part 1)
TTITLE2=Rainbow Riot
TTITLE3=Moondust
TTITLE4=Slow Walk
TTITLE5=Ram-Bunk-Shush
TTITLE6=Slidin'
TTITLE7=Floyd's Guitar Blues
TTITLE8=Big City Drag
TTITLE9=Soft
EXTD=YEAR: 2004
EXTT0=
EXTT1=
EXTT2=
EXTT3=
EXTT4=
EXTT5=
EXTT6=
EXTT7=
EXTT8=
EXTT9=
PLAYORDER=
